HIERARCHY
ROOT Hips
{
	OFFSET 0.00000 0.00000 0.00000
	CHANNELS 6 Xposition Yposition Zposition Zrotation Yrotation Xrotation 
	JOINT LHipJoint
	{
		OFFSET 0 0 0
		CHANNELS 3 Zrotation Yrotation Xrotation
		JOINT LeftHip
		{
			OFFSET 1.40252 -1.71424 0.59123
			CHANNELS 3 Zrotation Yrotation Xrotation
			JOINT LeftKnee
			{
				OFFSET 2.50071 -6.87065 0.00000
				CHANNELS 3 Zrotation Yrotation Xrotation
				JOINT LeftAnkle
				{
					OFFSET 2.50834 -6.89162 0.00000
					CHANNELS 3 Zrotation Yrotation Xrotation
					JOINT LeftToe
					{
						OFFSET 0.21528 -0.59149 1.64448
						CHANNELS 3 Zrotation Yrotation Xrotation
						End Site
						{
							OFFSET 0.00000 -0.00000 0.87921
						}
					}
				}
			}
		}
	}
	JOINT RHipJoint
	{
		OFFSET 0 0 0
		CHANNELS 3 Zrotation Yrotation Xrotation
		JOINT RightHip
		{
			OFFSET -1.53651 -1.71424 0.59123
			CHANNELS 3 Zrotation Yrotation Xrotation
			JOINT RightKnee
			{
				OFFSET -2.45783 -6.75285 0.00000
				CHANNELS 3 Zrotation Yrotation Xrotation
				JOINT RightAnkle
				{
					OFFSET -2.51921 -6.92147 0.00000
					CHANNELS 3 Zrotation Yrotation Xrotation
					JOINT RightToe
					{
						OFFSET -0.21777 -0.59831 1.59676
						CHANNELS 3 Zrotation Yrotation Xrotation
						End Site
						{
							OFFSET -0.00000 -0.00000 0.85779
						}
					}
				}
			}
		}
	}
	JOINT lowerback
	{
		OFFSET 0 0 0
		CHANNELS 3 Zrotation Yrotation Xrotation
		JOINT Chest
		{
			OFFSET 0.02212 2.07622 0.03776
			CHANNELS 3 Zrotation Yrotation Xrotation
			JOINT Chest2
			{
				OFFSET -0.00949 2.08009 -0.00123
				CHANNELS 3 Zrotation Yrotation Xrotation
				JOINT lowerneck
				{
					OFFSET 0 0 0
					CHANNELS 3 Zrotation Yrotation Xrotation
					JOINT Neck
					{
						OFFSET 0.00288 1.67184 0.11155
						CHANNELS 3 Zrotation Yrotation Xrotation
						JOINT Head
						{
							OFFSET -0.02412 1.66997 -0.22040
							CHANNELS 3 Zrotation Yrotation Xrotation
							End Site
							{
								OFFSET -0.01026 1.69043 -0.08683
							}
						}
					}
				}
				JOINT LeftCollar
				{
					OFFSET 0 0 0
					CHANNELS 3 Zrotation Yrotation Xrotation
					JOINT LeftShoulder
					{
						OFFSET 3.97941 0.74048 0.81462
CHANNELS 3 Zrotation Xrotation Yrotation
						JOINT LeftElbow
						{
OFFSET 0 -5.018340 -0.000000
CHANNELS 3 Zrotation Xrotation Yrotation
							JOINT LeftWrist
							{
OFFSET 0 -3.486900 0.000000
CHANNELS 3 Zrotation Xrotation Yrotation
								JOINT lhand
								{
									OFFSET 0 0 0
CHANNELS 3 Zrotation Xrotation Yrotation
									JOINT LFingers
									{
OFFSET 0 -0.767990 0.000000
CHANNELS 3 Zrotation Xrotation Yrotation
										End Site
										{
OFFSET 0 -0.619170 0.000000
										}
									}
								}
								JOINT LThumb
								{
OFFSET 0 0.000000 0.000000
CHANNELS 3 Zrotation Xrotation Yrotation
									End Site
									{
OFFSET 0 -0.628630 0.628630
									}
								}
							}
						}
					}
				}
				JOINT RightCollar
				{
					OFFSET 0 0 0
					CHANNELS 3 Zrotation Yrotation Xrotation
					JOINT RightShoulder
					{
						OFFSET -3.88702 1.02123 0.44091
CHANNELS 3 Zrotation Xrotation Yrotation
						JOINT RightElbow
						{
OFFSET 0 -4.701640 0.000000
CHANNELS 3 Zrotation Xrotation Yrotation
							JOINT RightWrist
							{
OFFSET 0 -3.499110 0.000000
CHANNELS 3 Zrotation Xrotation Yrotation
								JOINT rhand
								{
									OFFSET 0 0 0
CHANNELS 3 Zrotation Xrotation Yrotation
									JOINT RFingers
									{
OFFSET 0 -0.739330 0.000000
CHANNELS 3 Zrotation Xrotation Yrotation
										End Site
										{
OFFSET 0 -0.596070 0.000000
										}
									}
								}
								JOINT RThumb
								{
OFFSET 0 0.000000 0.000000
CHANNELS 3 Zrotation Xrotation Yrotation
									End Site
									{
OFFSET 0 -0.605170 0.605170
									}
								}
							}
						}
					}
				}
			}
		}
	}
}
MOTION
Frames: 6
Frame Time: 0.008333333333333333
-3.485005 17.282706 8.538093 -537.534663 103.529230 -529.272377 0.000000 0.000000 0.000000 -23.182750 5.664522 -15.107630 1.420833 7.537974 21.319351 1.480303 -0.032028 -23.012976 0.260380 -3.282232 -9.065637 0.000000 0.000000 0.000000 8.404209 20.743143 -27.998885 -12.193673 -18.470530 66.600453 -0.511410 4.539341 15.924123 -2.233699 -9.278054 26.705271 2.170180 2.098246 -8.555219 4.581178 2.942398 -5.941209 3.733286 1.617197 -1.518932 3.872107 4.765318 -13.050236 -6.604499 7.540507 20.470332 -1.981673 3.283981 8.965185 0.000000 0.000000 0.000000 101.653898 -38.341844 17.117411 26.749908 -37.937393 9.345912 19.129265 -8.368996 -58.766760 0.000000 0.000000 0.000000 -7.125000 0.000000 0.000000 -93.101955 74.455969 76.959325 0.000000 0.000000 0.000000 -21.796617 4.190486 36.004790 -37.716883 -46.656950 -16.759527 27.005170 176.253564 9.654205 0.000000 0.000000 0.000000 7.125000 0.000000 0.000000 -0.024840 40.788955 -0.002567
-3.514347 17.433620 8.434380 -546.940947 101.457875 -536.226586 0.000000 0.000000 0.000000 -21.215228 3.433307 -15.986905 1.123892 6.732588 18.926083 1.315172 -0.538322 -21.520786 0.141702 -2.425458 -6.683011 0.000000 0.000000 0.000000 10.592667 15.871256 -38.584662 -13.345133 -18.902267 70.193248 -0.029495 -2.731323 3.435505 -0.352667 -3.813965 10.554198 3.336548 -0.752882 -9.220670 6.141198 -0.940011 -5.836913 4.431746 -0.319433 -0.864225 4.514286 6.709230 -12.875491 -7.970813 10.316396 19.314116 -2.201597 4.517059 8.819518 0.000000 0.000000 0.000000 105.503365 -42.263915 21.973209 21.292572 -32.165324 6.206338 14.058283 -18.271579 -62.304732 0.000000 0.000000 0.000000 -7.125000 0.000000 0.000000 -91.670824 -76.431465 -105.678281 0.000000 0.000000 0.000000 -25.492893 1.345415 34.764705 -42.620158 -49.546062 -20.411869 28.390743 170.526035 10.235414 0.000000 0.000000 0.000000 7.125000 0.000000 0.000000 -1.218033 41.575826 -0.102459
-3.472640 17.603923 8.346033 -552.370179 101.250907 -541.323297 0.000000 0.000000 0.000000 -20.452262 3.020788 -13.479948 0.658992 5.189043 14.449118 1.103296 0.320634 -19.979612 0.099603 -2.034136 -5.600059 0.000000 0.000000 0.000000 13.455253 12.748908 -41.917791 -10.310913 -17.573575 60.512368 0.052559 4.106223 0.947275 -0.151360 -2.440439 6.727227 3.470505 -2.481069 -7.850930 7.428220 -3.203492 -5.263451 5.560972 -1.447175 -0.841694 5.132807 8.239790 -12.285075 -9.648721 12.428040 16.909691 -2.615193 5.469934 8.209281 0.000000 0.000000 0.000000 107.703121 -47.879100 31.831783 16.541060 -26.244549 3.884632 12.742405 -20.339970 -60.640031 0.000000 0.000000 0.000000 -7.125000 0.000000 0.000000 -85.955649 -55.776941 -74.821207 0.000000 0.000000 0.000000 -27.886973 -0.135313 31.823461 -47.183114 -51.790256 -23.943319 30.239895 168.413943 10.473419 0.000000 0.000000 0.000000 7.125000 0.000000 0.000000 -2.868665 42.039719 -0.210106
-3.346307 17.700208 8.279790 -555.723065 99.325034 -545.232861 0.000000 0.000000 0.000000 -20.608952 -0.654085 -9.081147 0.374069 3.926859 10.871076 0.925194 2.865368 -19.419227 0.037701 -1.253377 -3.446183 0.000000 0.000000 0.000000 16.484840 7.626771 -40.394091 -6.361011 -14.754681 46.386776 -0.011431 -0.075034 -2.024133 -0.049637 1.394057 -3.834609 3.429211 -4.212947 -6.109842 7.676043 -5.443896 -4.874204 5.781039 -2.587758 -1.211692 5.745215 9.085053 -11.977973 -9.714076 13.273221 15.240741 -2.650608 5.945132 7.716625 0.000000 0.000000 0.000000 114.349991 -55.822072 56.004554 12.984854 -21.262438 2.449621 14.616408 -21.881395 -55.615854 0.000000 0.000000 0.000000 -7.125000 0.000000 0.000000 -77.122647 77.212173 64.067528 0.000000 0.000000 0.000000 -28.430216 0.999491 29.286176 -53.594923 -54.342094 -29.071898 31.410209 167.032597 9.791279 0.000000 0.000000 0.000000 7.125000 0.000000 0.000000 -3.946569 41.379031 -0.353388
-3.118635 17.689696 8.286467 -560.813800 96.768354 -550.252307 0.000000 0.000000 0.000000 -20.508923 -1.077533 -7.830913 0.320286 3.637772 10.059747 1.000369 1.151299 -19.348857 0.046159 -1.385931 -3.811394 0.000000 0.000000 0.000000 18.829857 3.543231 -36.452565 -3.442941 -11.370468 33.550788 0.009737 -2.424609 0.936428 -0.109765 1.546427 -4.262067 2.990349 -5.946800 -6.012993 7.758382 -7.728885 -5.105353 5.995496 -3.731125 -1.266153 5.962092 9.666403 -11.004477 -9.474629 13.945146 14.567937 -2.575111 6.346812 7.377009 0.000000 0.000000 0.000000 123.158101 -62.209456 76.140629 11.243968 -18.660718 1.853581 10.124329 -27.373259 -50.853408 0.000000 0.000000 0.000000 -7.125000 0.000000 0.000000 -60.254556 74.231188 45.262017 0.000000 0.000000 0.000000 -28.186466 3.510442 28.176177 -59.512884 -56.175502 -33.936835 34.123234 162.176653 10.612923 0.000000 0.000000 0.000000 7.125000 0.000000 0.000000 -6.403317 42.646143 -0.368512
-2.811368 17.620224 8.334033 -566.116451 94.513325 -555.657254 0.000000 0.000000 0.000000 -20.553601 -2.007291 -7.135536 0.414436 4.131469 11.446923 1.198687 -0.569333 -20.521401 0.032617 -1.165492 -3.204198 0.000000 0.000000 0.000000 19.686338 3.452960 -30.192163 -2.215502 -9.295097 26.727244 0.051890 -4.903839 -4.662418 -0.047820 1.410154 -3.878105 2.692591 -7.398265 -6.688516 7.430374 -9.699632 -5.338203 5.613580 -4.725636 -0.982886 6.156439 10.214374 -10.504453 -9.345334 14.719992 14.965775 -2.484581 6.745819 7.486019 0.000000 0.000000 0.000000 123.339170 -67.539961 71.956301 14.352377 -23.226736 2.971519 17.281767 -34.987601 -46.032060 0.000000 0.000000 0.000000 -7.125000 0.000000 0.000000 -39.531389 74.243074 28.357957 0.000000 0.000000 0.000000 -27.142440 5.653430 27.496987 -63.572557 -57.187534 -37.329430 34.731745 159.554455 11.594730 0.000000 0.000000 0.000000 7.125000 0.000000 0.000000 -6.972733 43.886957 -0.191957
